<svg width="384" height="384" viewBox="0 0 384 384" fill="none" xmlns="http://www.w3.org/2000/svg">
<path fill-rule="evenodd" clip-rule="evenodd" d="M176.773 169L183.773 175.635V309H176.773V169Z" fill="#87929C"/>
<path fill-rule="evenodd" clip-rule="evenodd" d="M213.773 169L206.773 175.635V309H213.773V169Z" fill="#87929C"/>
<path fill-rule="evenodd" clip-rule="evenodd" d="M186.773 180V313H204.773V180L186.773 180Z" fill="#B0B8C0"/>
<path fill-rule="evenodd" clip-rule="evenodd" d="M164.773 40H221.773L206.738 63H180.688L164.773 40Z" fill="#6A7AFF"/>
<path fill-rule="evenodd" clip-rule="evenodd" d="M365.426 286.202L336.916 335.531L324.692 311.132L337.722 288.588L365.426 286.202Z" fill="#6A7AFF"/>
<path fill-rule="evenodd" clip-rule="evenodd" d="M50.8758 336.888L22.3663 287.559L49.6301 289.184L62.6594 311.728L50.8758 336.888Z" fill="#6A7AFF"/>
<path fill-rule="evenodd" clip-rule="evenodd" d="M225.791 43L210.773 65.7564L337.109 285L364.773 282.616L225.791 43Z" fill="#6A7AFF"/>
<path fill-rule="evenodd" clip-rule="evenodd" d="M333.004 337.587L320.78 313.189L206.539 313.074L202.531 319L188.754 319L183.891 313.052L67.3014 312.935L55.5178 338.095L333.004 337.587Z" fill="#6A7AFF"/>
<path fill-rule="evenodd" clip-rule="evenodd" d="M22.5081 283.487L49.7719 285.111L176.731 65.9472L160.811 43.1727L22.5081 283.487Z" fill="#6A7AFF"/>
<path fill-rule="evenodd" clip-rule="evenodd" d="M179.773 169L186.512 176H204.034L210.773 169H179.773Z" fill="#87929C"/>
<path fill-rule="evenodd" clip-rule="evenodd" d="M186.773 313L190.671 317H201.453L204.773 313H186.773Z" fill="#B0B8C0"/>
</svg>
